# xmcd CD database file
#
# Track frame offsets:
#	150
#	15176
#	36374
#	58965
#	73803
#	96646
#	118731
#	133561
#
# Disc length: 1984 seconds
#
# Revision: 0
# Processed by: cddbd v1.5.1PL0 Copyright (c) Steve Scherf et al.
# Submitted via: CDex 1.51
#
DISCID=7407be08
DTITLE=Gene Russell - New Direction
DYEAR=1971
DGENRE=Jazz
TTITLE0=Black Orchid
TTITLE1=Hitting The Jug
TTITLE2=Willow Weep For Me
TTITLE3=Listen Here
TTITLE4=On Green Dolphin Street
TTITLE5=Silver's Serenade
TTITLE6=My Cherie Amour
TTITLE7=Making Bread
EXTD=YEAR: 1971
EXTT0=
EXTT1=
EXTT2=
EXTT3=
EXTT4=
EXTT5=
EXTT6=
EXTT7=
PLAYORDER=
